<svg xmlns="http://www.w3.org/2000/svg" viewBox="0 0 16 16" id="Steam--Streamline-Font-Awesome" height="16" width="16">
  <desc>
    Steam Streamline Icon: https://streamlinehq.com
  </desc>
<!--! Font Awesome Free 6.5.2 by @fontawesome - https://fontawesome.com License - https://fontawesome.com/license/free (Icons: CC BY 4.0, Fonts: SIL OFL 1.1, Code: MIT License) Copyright 2024 Fonticons, Inc.-->
  <path d="M15.84 8c0 4.330967741935483 -3.515354838709677 7.84 -7.852645161290322 7.84 -3.597548387096774 0 -6.6260645161290315 -2.4120645161290324 -7.555483870967742 -5.702967741935484l3.0095483870967743 1.2423870967741937c0.2023225806451613 1.014774193548387 1.103290322580645 1.7829677419354837 2.1781290322580644 1.7829677419354837 1.2392258064516128 0 2.272967741935484 -1.024258064516129 2.2192258064516133 -2.3235483870967744l2.6712903225806452 -1.9030967741935485c1.647032258064516 0.04109677419354839 3.028516129032258 -1.292967741935484 3.028516129032258 -2.955806451612903 0 -1.6312258064516127 -1.3277419354838709 -2.955806451612903 -2.9621290322580642 -2.955806451612903s-2.9621290322580642 1.3277419354838709 -2.9621290322580642 2.955806451612903v0.03793548387096774l-1.871483870967742 2.709225806451613c-0.49 -0.028451612903225804 -0.970516129032258 0.10748387096774192 -1.3751612903225807 0.38251612903225807L0.16 7.370903225806451C0.4824516129032258 3.3339354838709676 3.8618709677419356 0.16 7.9873548387096776 0.16 12.324645161290324 0.16 15.84 3.669032258064516 15.84 8ZM5.082129032258064 12.055935483870966l-0.9641935483870968 -0.3983225806451613c0.17718064516129034 0.36791612903225807 0.4831129032258064 0.6581032258064515 0.8598709677419354 0.8156129032258064 0.8503870967741934 0.3540645161290323 1.8272258064516127 -0.05058064516129032 2.181290322580645 -0.8978064516129032 0.17070967741935483 -0.41096774193548385 0.17387096774193547 -0.8630322580645161 0.003161290322580645 -1.274 -0.17070967741935483 -0.41096774193548385 -0.49 -0.7334193548387097 -0.9009677419354838 -0.9041290322580644 -0.4078064516129032 -0.17070967741935483 -0.8440645161290322 -0.16438709677419355 -1.229741935483871 -0.01896774193548387l0.9958064516129033 0.41096774193548385c0.6259354838709678 0.25922580645161286 0.9230967741935483 0.9768387096774194 0.6607096774193548 1.602774193548387 -0.26238709677419353 0.6290967741935484 -0.98 0.9230967741935483 -1.6059354838709676 0.6638709677419354ZM10.576451612903226 7.949419354838709c-1.087483870967742 0 -1.9726451612903226 -0.8851612903225806 -1.9726451612903226 -1.969483870967742s0.8851612903225806 -1.969483870967742 1.9726451612903226 -1.969483870967742 1.9726451612903226 0.8851612903225806 1.9726451612903226 1.969483870967742 -0.8819999999999999 1.969483870967742 -1.9726451612903226 1.969483870967742Zm0.003161290322580645 -0.49316129032258066c0.8187741935483871 0 1.4826451612903226 -0.6638709677419354 1.4826451612903226 -1.4794838709677418 0 -0.8187741935483871 -0.6638709677419354 -1.4794838709677418 -1.4826451612903226 -1.4794838709677418s-1.4826451612903226 0.6638709677419354 -1.4826451612903226 1.4794838709677418c0.003161290322580645 0.8156129032258064 0.6670322580645162 1.4794838709677418 1.4826451612903226 1.4794838709677418Z" fill="#ffffff" stroke-width="0.0323"></path>
</svg>