<svg viewBox="0 0 16 16" fill="none" xmlns="http://www.w3.org/2000/svg" id="Exit--Streamline-Radix" height="16" width="16">
  <desc>
    Exit Streamline Icon: https://streamlinehq.com
  </desc>
  <path fill-rule="evenodd" clip-rule="evenodd" d="M3.2 1.0666666666666667c-0.5891093333333333 0 -1.0666666666666667 0.477568 -1.0666666666666667 1.0666666666666667v11.733333333333333c0 0.58912 0.477568 1.0666666666666667 1.0666666666666667 1.0666666666666667h8c0.2945066666666667 0 0.5333333333333333 -0.23882666666666666 0.5333333333333333 -0.5333333333333333s-0.23882666666666666 -0.5333333333333333 -0.5333333333333333 -0.5333333333333333H3.2V2.1333333333333333l8 0c0.2945066666666667 0 0.5333333333333333 -0.238784 0.5333333333333333 -0.5333333333333333s-0.23882666666666666 -0.5333333333333333 -0.5333333333333333 -0.5333333333333333H3.2Zm10.24384 4.1562133333333335c-0.20832 -0.208288 -0.5460266666666667 -0.208288 -0.7543466666666667 0 -0.20821333333333333 0.20827733333333331 -0.20821333333333333 0.5459626666666666 0 0.7542399999999999L14.179093333333332 7.466666666666667H6.933333333333334c-0.29454933333333333 0 -0.5333333333333333 0.238784 -0.5333333333333333 0.5333333333333333s0.238784 0.5333333333333333 0.5333333333333333 0.5333333333333333h7.245760000000001l-1.4896 1.4895466666666666c-0.20821333333333333 0.20827733333333331 -0.20821333333333333 0.5459626666666666 0 0.7542933333333333 0.20832 0.20821333333333333 0.5460266666666667 0.20821333333333333 0.7543466666666667 0l2.4 -2.400053333333333c0.20821333333333333 -0.20827733333333331 0.20821333333333333 -0.5459626666666666 0 -0.7542399999999999l-2.4 -2.4Z" fill="#ffffff" stroke-width="1.0667"></path>
</svg>