<svg xmlns="http://www.w3.org/2000/svg" viewBox="0 0 16 16" id="Square-Phone--Streamline-Font-Awesome" height="16" width="16">
  <desc>
    Square Phone Streamline Icon: https://streamlinehq.com
  </desc>
<!--! Font Awesome Free 6.5.2 by @fontawesome - https://fontawesome.com License - https://fontawesome.com/license/free (Icons: CC BY 4.0, Fonts: SIL OFL 1.1, Code: MIT License) Copyright 2024 Fonticons, Inc.-->
  <path d="M2.4 0.16C1.1645 0.16 0.16 1.1645 0.16 2.4v11.200000000000001c0 1.2355 1.0045 2.2399999999999998 2.2399999999999998 2.2399999999999998h11.200000000000001c1.2355 0 2.2399999999999998 -1.0045 2.2399999999999998 -2.2399999999999998V2.4c0 -1.2355 -1.0045 -2.2399999999999998 -2.2399999999999998 -2.2399999999999998H2.4Zm3.1744999999999997 3.3845c0.33949999999999997 -0.091 0.6964999999999999 0.0805 0.8294999999999999 0.40599999999999997l0.7000000000000001 1.68c0.119 0.287 0.034999999999999996 0.616 -0.20299999999999999 0.8119999999999999l-0.861 0.707c0.581 1.232 1.5785 2.2295 2.8104999999999998 2.8104999999999998l0.707 -0.8644999999999999c0.196 -0.238 0.5249999999999999 -0.322 0.8119999999999999 -0.20299999999999999l1.68 0.7000000000000001c0.3255 0.13649999999999998 0.497 0.49 0.40599999999999997 0.8294999999999999l-0.42 1.5399999999999998c-0.08399999999999999 0.308 -0.36049999999999993 0.5179999999999999 -0.6755 0.5179999999999999 -4.3294999999999995 0 -7.84 -3.5104999999999995 -7.84 -7.84 0 -0.315 0.21 -0.5915 0.5145 -0.6755l1.5399999999999998 -0.42Z" fill="#ffffff" stroke-width="0.0357"></path>
</svg>