<svg viewBox="0 0 16 16" fill="none" xmlns="http://www.w3.org/2000/svg" id="Lock-Closed--Streamline-Radix" height="16" width="16">
  <desc>
    Lock Closed Streamline Icon: https://streamlinehq.com
  </desc>
  <path fill-rule="evenodd" clip-rule="evenodd" d="M5.333333333333333 4.945077333333333c0 -0.93408 0.258336 -1.6326506666666667 0.6861119999999999 -2.093269333333333 0.42251733333333336 -0.4549546666666667 1.0694293333333333 -0.7416213333333334 1.982048 -0.7416213333333334 0.9131199999999999 0 1.559104 0.2861013333333333 1.9806186666666665 0.7400319999999999 0.4268266666666667 0.45963733333333334 0.6845546666666666 1.1573333333333333 0.6845546666666666 2.091914666666667v1.457856H5.333333333333333V4.945077333333333ZM4.266666666666667 6.399989333333334V4.945077333333333c0 -1.124832 0.3129493333333333 -2.110368 0.9711893333333333 -2.819136C5.901354666666666 1.4115093333333335 6.8552 1.0435221333333333 8.001493333333334 1.0435221333333333c1.1460586666666666 0 2.099328 0.3669632 2.76224 1.0808725333333333 0.6577066666666667 0.7082133333333334 0.9696 1.6931626666666666 0.9696 2.8177386666666666v1.457856h1.0666666666666667c0.58912 0 1.0666666666666667 0.477568 1.0666666666666667 1.0666666666666667V13.866666666666667c0 0.58912 -0.4775466666666666 1.0666666666666667 -1.0666666666666667 1.0666666666666667H3.2c-0.5890986666666667 0 -1.0666666666666667 -0.4775466666666666 -1.0666666666666667 -1.0666666666666667V7.466656c0 -0.5890986666666667 0.477568 -1.0666666666666667 1.0666666666666667 -1.0666666666666667h1.0666666666666667Zm-1.0666666666666667 1.0666666666666667h9.6V13.866666666666667H3.2V7.466656Z" fill="#000000" stroke-width="1.0667"></path>
</svg>