<svg viewBox="0 0 16 16" fill="none" xmlns="http://www.w3.org/2000/svg" id="Double-Arrow-Down--Streamline-Radix" height="16" width="16">
  <desc>
    Double Arrow Down Streamline Icon: https://streamlinehq.com
  </desc>
  <path fill-rule="evenodd" clip-rule="evenodd" d="M4.110453333333333 2.289546666666667c-0.20827733333333331 -0.208288 -0.5459626666666666 -0.208288 -0.7542399999999999 0 -0.208288 0.20827733333333331 -0.208288 0.5459626666666666 0 0.7542399999999999l4.266666666666667 4.266666666666667c0.20827733333333331 0.208288 0.5459626666666666 0.208288 0.7542399999999999 0l4.266719999999999 -4.266666666666667c0.20821333333333333 -0.20827733333333331 0.20821333333333333 -0.5459626666666666 0 -0.7542399999999999 -0.20832 -0.208288 -0.5460266666666667 -0.208288 -0.7543466666666667 0L8 6.179082666666666 4.110453333333333 2.289546666666667Zm0 6.4c-0.20827733333333331 -0.208288 -0.5459626666666666 -0.208288 -0.7542399999999999 0 -0.208288 0.20827733333333331 -0.208288 0.5459626666666666 0 0.7542399999999999l4.266666666666667 4.266719999999999c0.20827733333333331 0.20821333333333333 0.5459626666666666 0.20821333333333333 0.7542399999999999 0l4.266719999999999 -4.266719999999999c0.20821333333333333 -0.20827733333333331 0.20821333333333333 -0.5459626666666666 0 -0.7542399999999999 -0.20832 -0.208288 -0.5460266666666667 -0.208288 -0.7543466666666667 0L8 12.579093333333333 4.110453333333333 8.689546666666667Z" fill="#000000" stroke-width="1.0667"></path>
</svg>