<svg viewBox="0 0 16 16" fill="none" xmlns="http://www.w3.org/2000/svg" id="Double-Arrow-Up--Streamline-Radix" height="16" width="16">
  <desc>
    Double Arrow Up Streamline Icon: https://streamlinehq.com
  </desc>
  <path fill-rule="evenodd" clip-rule="evenodd" d="M11.889493333333332 7.310453333333333c0.20832 0.208288 0.5460266666666667 0.208288 0.7543466666666667 0 0.20821333333333333 -0.20827733333333331 0.20821333333333333 -0.5459626666666666 0 -0.7542399999999999l-4.266719999999999 -4.266666666666667c-0.20827733333333331 -0.208288 -0.5459626666666666 -0.208288 -0.7542399999999999 0l-4.266666666666667 4.266666666666667c-0.208288 0.20827733333333331 -0.208288 0.5459626666666666 0 0.7542399999999999 0.20827733333333331 0.208288 0.5459626666666666 0.208288 0.7542399999999999 0L8 3.4209173333333336l3.8894933333333332 3.889536Zm0 6.400053333333333c0.20832 0.20821333333333333 0.5460266666666667 0.20821333333333333 0.7543466666666667 0 0.20821333333333333 -0.20832 0.20821333333333333 -0.5460266666666667 0 -0.7543466666666667L8.37712 8.689546666666667c-0.20827733333333331 -0.208288 -0.5459626666666666 -0.208288 -0.7542399999999999 0l-4.266666666666667 4.266613333333334c-0.208288 0.20832 -0.208288 0.5460266666666667 0 0.7543466666666667 0.20827733333333331 0.20821333333333333 0.5459626666666666 0.20821333333333333 0.7542399999999999 0L8 9.820917333333334l3.8894933333333332 3.8895893333333333Z" fill="#000000" stroke-width="1.0667"></path>
</svg>