<svg xmlns="http://www.w3.org/2000/svg" viewBox="0 0 16 16" id="Git-Alt--Streamline-Font-Awesome" height="16" width="16">
  <desc>
    Git Alt Streamline Icon: https://streamlinehq.com
  </desc>
<!--! Font Awesome Free 6.5.2 by @fontawesome - https://fontawesome.com License - https://fontawesome.com/license/free (Icons: CC BY 4.0, Fonts: SIL OFL 1.1, Code: MIT License) Copyright 2024 Fonticons, Inc.-->
  <path d="M15.544224999999999 7.301767857142857 8.699996428571428 0.4557928571428571c-0.3945285714285714 -0.39417857142857143 -1.0338142857142856 -0.39417857142857143 -1.4283428571428571 0l-1.4230964285714285 1.4220428571428572 1.8031928571428573 1.8031964285714284c0.9470964285714285 -0.3199 1.8437964285714286 0.5869464285714285 1.5186464285714285 1.5287928571428568l1.738092857142857 1.738092857142857c1.1980464285714285 -0.41299642857142854 2.141292857142857 1.0849964285714284 1.2414464285714286 1.984142857142857 -0.9271464285714286 0.9271464285714286 -2.457342857142857 -0.10045 -1.959992857142857 -1.3068928571428573l-1.6222464285714284 -1.6201464285714284v4.264735714285714c0.8855 0.43889999999999996 0.7791 1.4647464285714284 0.3178 1.924992857142857 -0.4693142857142857 0.46904285714285715 -1.2299321428571428 0.46904285714285715 -1.699242857142857 0 -0.6149499999999999 -0.6159964285714286 -0.38744999999999996 -1.6418428571428572 0.39374642857142855 -1.959992857142857V5.929771428571429c-0.7279964285714285 -0.29784642857142857 -0.8609964285714286 -1.075892857142857 -0.6523964285714285 -1.574992857142857l-1.777642857142857 -1.779742857142857L0.45577857142857137 7.2699178571428575c-0.3943714285714286 0.39445 -0.3943714285714286 1.0338928571428572 0 1.4283464285714285l6.846325 6.845974999999999c0.3944107142857143 0.39413571428571426 1.0335821428571428 0.39413571428571426 1.427992857142857 0l6.814128571428571 -6.814125c0.3943678571428571 -0.3944535714285714 0.3943678571428571 -1.0338964285714285 0 -1.4283464285714285Z" fill="#e8491d" stroke-width="0.0357"></path>
</svg>