<svg xmlns="http://www.w3.org/2000/svg" viewBox="0 0 16 16" id="Laravel--Streamline-Font-Awesome" height="16" width="16">
  <desc>
    Laravel Streamline Icon: https://streamlinehq.com
  </desc>
<!--! Font Awesome Free 6.5.2 by @fontawesome - https://fontawesome.com License - https://fontawesome.com/license/free (Icons: CC BY 4.0, Fonts: SIL OFL 1.1, Code: MIT License) Copyright 2024 Fonticons, Inc.-->
  <path d="M15.7625 3.6196875a0.17875 0.17875 0 0 0 -0.00875 -0.02125 0.26625 0.26625 0 0 0 -0.0165625 -0.0390625 0.1875 0.1875 0 0 0 -0.016875 -0.0221875 0.2925 0.2925 0 0 0 -0.0225 -0.029375c-0.0071875 -0.006875 -0.01625 -0.0125 -0.0240625 -0.01875a0.27625 0.27625 0 0 0 -0.028125 -0.02125L12.6375 1.7359375a0.25 0.25 0 0 0 -0.25 0L9.37875 3.46875a0.2521875 0.2521875 0 0 0 -0.0275 0.0215625 0.24 0.24 0 0 0 -0.024375 0.01875 0.2571875 0.2571875 0 0 0 -0.0225 0.0290625c-0.0053125 0.0075 -0.0121875 0.0140625 -0.016875 0.0221875a0.303125 0.303125 0 0 0 -0.01625 0.0390625c-0.0025 0.0071875 -0.0065625 0.01375 -0.00875 0.02125a0.2525 0.2525 0 0 0 -0.00875 0.065v3.28875l-2.506875 1.4434375V1.9825a0.24375 0.24375 0 0 0 -0.00875 -0.0653125c-0.001875 -0.0075 -0.00625 -0.0140625 -0.00875 -0.02125a0.2609375 0.2609375 0 0 0 -0.01625 -0.03875c-0.004375 -0.008125 -0.0115625 -0.0146875 -0.016875 -0.0225a0.2925 0.2925 0 0 0 -0.0225 -0.029375 0.295625 0.295625 0 0 0 -0.024375 -0.01875 0.30625 0.30625 0 0 0 -0.0275 -0.02125L3.6128125 0.0334375a0.25 0.25 0 0 0 -0.25 0L0.354375 1.7653125a0.20375 0.20375 0 0 0 -0.0275 0.0215625 0.2440625 0.2440625 0 0 0 -0.0246875 0.01875 0.2546875 0.2546875 0 0 0 -0.0221875 0.0290625c-0.005625 0.0078125 -0.0125 0.014375 -0.0171875 0.0225a0.24625 0.24625 0 0 0 -0.0159375 0.03875 0.201875 0.201875 0 0 0 -0.0090625 0.0209375 0.255625 0.255625 0 0 0 -0.00875 0.065625v10.303125a0.25 0.25 0 0 0 0.125 0.2171875l6.015625 3.46375a0.2759375 0.2759375 0 0 0 0.0415625 0.016875c0.0065625 0.0025 0.0128125 0.00625 0.0196875 0.008125a0.2475 0.2475 0 0 0 0.128125 0c0.00625 -0.0015625 0.0115625 -0.005 0.0171875 -0.006875a0.26875 0.26875 0 0 0 0.04375 -0.018125L12.6375 12.5028125a0.25 0.25 0 0 0 0.125 -0.2171875V8.99625l2.8825 -1.6596875a0.25 0.25 0 0 0 0.125 -0.21875V3.685a0.2696875 0.2696875 0 0 0 -0.0075 -0.0653125ZM3.4875 0.54l2.5059375 1.4421875 -2.50625 1.443125 -2.505625 -1.4428125Zm2.7578125 1.875V8.70625l-1.4540625 0.8371875 -1.0528125 0.60625V3.859375l1.4540625 -0.8371875Zm0 12.899375L0.7303125 12.140625V2.41625L1.783125 3.021875l1.45375 0.8375v6.724375a0.216875 0.216875 0 0 0 0.00375 0.028125 0.25 0.25 0 0 0 0.005 0.036875 0.185 0.185 0 0 0 0.011875 0.028125 0.199375 0.199375 0 0 0 0.013125 0.03125 0.266875 0.266875 0 0 0 0.01875 0.024375 0.238125 0.238125 0 0 0 0.020625 0.02625c0.0071875 0.006875 0.01625 0.011875 0.0240625 0.018125a0.2790625 0.2790625 0 0 0 0.026875 0.020625l2.8809375 1.630625Zm0.25 -3.3178125 -2.501875 -1.41625 2.6278125 -1.5128125 2.883125 -1.6596875 2.5040625 1.4415625 -1.8375 1.04875Zm5.76625 0.1428125L6.74625 15.3159375V12.43125l4.085 -2.33125 1.4303125 -0.8171875Zm0 -3.7228125L11.20875 7.8125l-1.4540625 -0.8371875v-2.856875l1.0528125 0.60625L12.2615625 5.5625Zm0.25 -3.29 -2.50625 -1.4428125 2.50625 -1.4425 2.505625 1.4421875Zm0.25 3.29V5.5625L14.21875 4.7246875l1.0525 -0.60625v2.8559375Z" fill="#e8491d" stroke-width="0.0313"></path>
</svg>