<svg xmlns="http://www.w3.org/2000/svg" viewBox="0 0 16 16" id="Php--Streamline-Font-Awesome" height="16" width="16">
  <desc>
    Php Streamline Icon: https://streamlinehq.com
  </desc>
<!--! Font Awesome Free 6.5.2 by @fontawesome - https://fontawesome.com License - https://fontawesome.com/license/free (Icons: CC BY 4.0, Fonts: SIL OFL 1.1, Code: MIT License) Copyright 2024 Fonticons, Inc.-->
  <path d="M8 4.288250000000001c4.1993 0 7.428400000000001 1.7689000000000001 7.428400000000001 3.7117500000000003S12.196850000000001 11.711750000000002 8 11.711750000000002c-4.1993 0 -7.428400000000001 -1.7689000000000001 -7.428400000000001 -3.7117500000000003S3.8031500000000005 4.288250000000001 8 4.288250000000001m0 -0.41159999999999997C3.67085 3.87665 0.16000000000000003 5.721500000000001 0.16000000000000003 8S3.67085 12.123350000000002 8 12.123350000000002 15.840000000000002 10.278500000000001 15.840000000000002 8 12.32915 3.87665 8 3.87665ZM5.5059000000000005 7.66925c-0.19355 0.99225 -0.8771000000000001 0.88935 -1.71745 0.88935l0.33565 -1.7297000000000002c0.931 0 1.5631000000000002 -0.10045 1.3818000000000001 0.8403499999999999ZM2.5463000000000005 10.31035h0.8991500000000001l0.21315 -1.0976000000000001c1.00695 0 1.6317000000000002 0.0735 2.2099 -0.46795000000000003 0.6394500000000001 -0.588 0.8060499999999999 -1.63415 0.35035 -2.1584499999999998 -0.23765000000000003 -0.27440000000000003 -0.61985 -0.40915 -1.13925 -0.40915h-1.73215l-0.80115 4.13315Zm4.54965 -5.2332h0.8942500000000001l-0.21315 1.0976000000000001c0.77175 0 1.48715 -0.056350000000000004 1.8326000000000002 0.26215000000000005 0.36260000000000003 0.3332 0.18865 0.7595000000000001 -0.20335000000000003 2.77095h-0.9065c0.3773 -1.9453 0.44835 -2.107 0.31115000000000004 -2.254 -0.1323 -0.1421 -0.43365000000000004 -0.11270000000000001 -1.1613 -0.11270000000000001l-0.4606 2.3667000000000002h-0.8942500000000001l0.80115 -4.1307ZM12.5325 7.66925c-0.196 1.00695 -0.8991500000000001 0.88935 -1.71745 0.88935l0.33565 -1.7297000000000002c0.9359000000000001 0 1.5631000000000002 -0.10045 1.3818000000000001 0.8403499999999999ZM9.5729 10.31035h0.9016000000000001l0.21315 -1.0976000000000001c1.0584 0 1.64395 0.061250000000000006 2.2099 -0.46795000000000003 0.6394500000000001 -0.588 0.8060499999999999 -1.63415 0.35035 -2.1584499999999998 -0.23765000000000003 -0.27440000000000003 -0.61985 -0.40915 -1.13925 -0.40915H10.3765l-0.8036 4.13315Z" fill="#e8491d" stroke-width="0.025"></path>
</svg>